<?xml version="1.0" encoding="UTF-8" standalone="no"?>
<svg
   xmlns:dc="http://purl.org/dc/elements/1.1/"
   xmlns:cc="http://creativecommons.org/ns#"
   xmlns:rdf="http://www.w3.org/1999/02/22-rdf-syntax-ns#"
   xmlns:svg="http://www.w3.org/2000/svg"
   xmlns="http://www.w3.org/2000/svg"
   xmlns:sodipodi="http://sodipodi.sourceforge.net/DTD/sodipodi-0.dtd"
   xmlns:inkscape="http://www.inkscape.org/namespaces/inkscape"
   version="1.1"
   x="0px"
   y="0px"
   viewBox="0 0 100 100"
   enable-background="new 0 0 100 100"
   xml:space="preserve"
   id="svg12"
   sodipodi:docname="noun_link_415104.svg"
   width="100"
   height="100"
   inkscape:version="0.92.1 r15371"><metadata
     id="metadata18"><rdf:RDF><cc:Work
         rdf:about=""><dc:format>image/svg+xml</dc:format><dc:type
           rdf:resource="http://purl.org/dc/dcmitype/StillImage" /><dc:title></dc:title></cc:Work></rdf:RDF></metadata><defs
     id="defs16" /><sodipodi:namedview
     pagecolor="#ffffff"
     bordercolor="#666666"
     borderopacity="1"
     objecttolerance="10"
     gridtolerance="10"
     guidetolerance="10"
     inkscape:pageopacity="0"
     inkscape:pageshadow="2"
     inkscape:window-width="671"
     inkscape:window-height="480"
     id="namedview14"
     showgrid="false"
     inkscape:zoom="1.888"
     inkscape:cx="50"
     inkscape:cy="62.5"
     inkscape:window-x="0"
     inkscape:window-y="0"
     inkscape:window-maximized="0"
     inkscape:current-layer="svg12" /><g
     id="g6"
     transform="translate(0,0.95338983)"><path
       fill="#ffffff"
       d="m 72.949,50.485 c -0.619,0.622 -0.617,1.63 0.007,2.25 0.623,0.62 1.632,0.618 2.251,-0.005 L 88.513,39.35 C 96.995,30.825 96.982,19.828 88.477,11.333 84.393,7.247 79.407,5 74.438,5 74.429,5 74.422,5 74.416,5 69.465,5.007 64.661,7.208 60.524,11.367 l -19.25,19.359 c -4.15,4.168 -6.334,9.013 -6.315,14.016 0.034,4.967 2.289,9.938 6.35,13.996 1.936,1.937 4.061,3.461 6.314,4.533 0.22,0.104 0.454,0.154 0.683,0.154 0.594,0 1.165,-0.336 1.439,-0.908 0.376,-0.795 0.039,-1.745 -0.754,-2.121 -1.926,-0.916 -3.753,-2.23 -5.432,-3.909 -3.465,-3.463 -5.389,-7.643 -5.417,-11.763 -0.016,-4.133 1.847,-8.197 5.388,-11.753 l 19.25,-19.36 c 3.527,-3.545 7.552,-5.421 11.639,-5.428 0.006,0 0.011,0 0.019,0 4.119,0 8.306,1.918 11.788,5.4 5.682,5.674 8.674,14.834 0.028,23.52 z"
       id="path2"
       inkscape:connector-curvature="0" /><path
       fill="#ffffff"
       d="m 27.057,49.512 c 0.62,-0.622 0.616,-1.629 -0.007,-2.25 -0.623,-0.62 -1.629,-0.617 -2.25,0.007 L 11.483,60.652 C 3.008,69.17 3.019,80.169 11.513,88.675 15.6,92.754 20.584,95 25.553,95 c 0.009,0 0.018,0 0.027,0 4.951,-0.01 9.757,-2.212 13.896,-6.372 L 58.722,69.275 c 4.158,-4.185 6.339,-9.031 6.31,-14.016 -0.024,-4.967 -2.279,-9.938 -6.351,-13.997 -1.95,-1.948 -4.073,-3.474 -6.312,-4.529 -0.794,-0.375 -1.742,-0.036 -2.118,0.759 -0.375,0.796 -0.035,1.745 0.76,2.12 1.905,0.899 3.729,2.211 5.421,3.902 3.473,3.463 5.396,7.641 5.415,11.763 0.025,4.12 -1.836,8.185 -5.383,11.755 l -19.246,19.35 c -3.53,3.548 -7.557,5.428 -11.645,5.435 -0.007,0 -0.013,0 -0.021,0 -4.12,0 -8.306,-1.915 -11.789,-5.393 C 8.088,80.742 5.102,71.578 13.739,62.899 Z"
       id="path4"
       inkscape:connector-curvature="0" /></g></svg>